<svg xmlns="http://www.w3.org/2000/svg" width="135" height="40" viewBox="0 0 135 40">
  <defs>
    <style>
      .cls-1 {
        fill: #1e88e5;
      }

      .cls-2 {
        fill: #fff;
      }

      .cls-2, .cls-3 {
        fill-rule: evenodd;
      }

      .cls-3 {
        fill: #1b2a49;
      }
    </style>
  </defs>
  <rect id="Прямоугольник_1" data-name="Прямоугольник 1" class="cls-1" x="0.156" width="39.906" height="40" rx="10" ry="10"/>
  <path id="itGap" class="cls-2" d="M52.94,13.622H47.681V32.188H52.94V13.622ZM52.5,5.981a3.348,3.348,0,0,0-4.412,0,2.886,2.886,0,0,0-.935,2.277,2.885,2.885,0,0,0,.935,2.277,3.348,3.348,0,0,0,4.412,0,2.887,2.887,0,0,0,.935-2.277A2.888,2.888,0,0,0,52.5,5.981ZM57.7,24.6a14.876,14.876,0,0,0,.335,3.282,6.037,6.037,0,0,0,1.182,2.524,5.589,5.589,0,0,0,2.259,1.624,9.411,9.411,0,0,0,3.565.582,12.353,12.353,0,0,0,2.859-.282,14.885,14.885,0,0,0,2.118-.671l-0.741-4.094a8.98,8.98,0,0,1-1.641.441,10.047,10.047,0,0,1-1.747.159,2.5,2.5,0,0,1-2.347-.988,5.192,5.192,0,0,1-.582-2.647V18h6.318V13.622H62.964V8.151L57.7,9V24.6ZM89.029,12.4a14.415,14.415,0,0,1,2.594,1.041l1.588-4.412q-0.283-.176-0.935-0.494a11.177,11.177,0,0,0-1.659-.618,19.851,19.851,0,0,0-2.4-.529,19.368,19.368,0,0,0-3.124-.229,13.413,13.413,0,0,0-4.782.847,11.007,11.007,0,0,0-3.9,2.488A11.707,11.707,0,0,0,73.8,14.5a14.458,14.458,0,0,0-.953,5.436,15.652,15.652,0,0,0,.865,5.4,11.022,11.022,0,0,0,2.453,3.988,10.436,10.436,0,0,0,3.83,2.471,14.03,14.03,0,0,0,4.994.847,27.913,27.913,0,0,0,5.4-.441,20.681,20.681,0,0,0,3.177-.829V19.27H88.059v8.506a7.413,7.413,0,0,1-1.147.141q-0.654.036-1.571,0.035a7.053,7.053,0,0,1-2.965-.582,5.721,5.721,0,0,1-2.118-1.641,7.18,7.18,0,0,1-1.271-2.524,11.734,11.734,0,0,1-.424-3.265A9.088,9.088,0,0,1,80.276,14.1q1.712-2.135,5.559-2.135A11.044,11.044,0,0,1,89.029,12.4Zm14.118,15.636a1.8,1.8,0,0,1-.829-1.712,1.871,1.871,0,0,1,.282-1.059,1.965,1.965,0,0,1,.777-0.671,3.646,3.646,0,0,1,1.147-.335,10.473,10.473,0,0,1,1.394-.088,10.688,10.688,0,0,1,1.165.071q0.635,0.071.953,0.141v3.988a10.094,10.094,0,0,1-1.13.106q-0.707.036-1.482,0.035A4.584,4.584,0,0,1,103.147,28.041Zm0.036-14.824q-0.9.088-1.712,0.212c-0.542.083-1.041,0.176-1.5,0.282s-0.842.206-1.147,0.3l0.671,4.235a11.387,11.387,0,0,1,2.259-.547A18.026,18.026,0,0,1,104.4,17.5a3.931,3.931,0,0,1,2.824.812,2.912,2.912,0,0,1,.812,2.153v0.494a8.177,8.177,0,0,0-1.288-.229,16.758,16.758,0,0,0-1.818-.088,14.081,14.081,0,0,0-2.93.3,7.9,7.9,0,0,0-2.506.971,5.025,5.025,0,0,0-1.747,1.8,5.416,5.416,0,0,0-.653,2.753,6.515,6.515,0,0,0,.565,2.859,4.759,4.759,0,0,0,1.624,1.888,7.086,7.086,0,0,0,2.523,1.041,15.439,15.439,0,0,0,3.265.318,30.2,30.2,0,0,0,4.871-.335q2.012-.335,3.141-0.582V20.717a11.835,11.835,0,0,0-.388-3.141,5.58,5.58,0,0,0-1.324-2.4,6.031,6.031,0,0,0-2.488-1.518A12.187,12.187,0,0,0,105,13.128Q104.082,13.128,103.183,13.216ZM126,28.094a6.211,6.211,0,0,1-1.606-.212,4.57,4.57,0,0,1-1.288-.529V17.858q0.388-.07.988-0.123t1.306-.053a3.8,3.8,0,0,1,3.247,1.465,6.367,6.367,0,0,1,1.095,3.9q0,5.048-3.742,5.047h0Zm8.454-9.212a8.328,8.328,0,0,0-1.889-3.053,8.422,8.422,0,0,0-3.035-1.941,11.4,11.4,0,0,0-4.094-.688q-0.954,0-2,.088t-2.047.229q-1.005.141-1.923,0.335t-1.624.406v24.46h5.259V31.729a9.825,9.825,0,0,0,1.835.6,9.433,9.433,0,0,0,2.048.212,8.2,8.2,0,0,0,3.494-.706,7.02,7.02,0,0,0,2.541-1.977,8.82,8.82,0,0,0,1.553-3.035,13.6,13.6,0,0,0,.53-3.918A11.742,11.742,0,0,0,134.455,18.881Z"/>
  <path id="i_" data-name="i " class="cls-3" d="M10.906,17.168H7.245V30.139h3.661V17.168ZM10.6,11.828a2.324,2.324,0,0,0-3.071,0,2.02,2.02,0,0,0-.651,1.591,2.019,2.019,0,0,0,.651,1.591,2.324,2.324,0,0,0,3.071,0,2.021,2.021,0,0,0,.651-1.591A2.022,2.022,0,0,0,10.6,11.828Z"/>
  <path id="G" class="cls-2" d="M28.389,12.967a12.607,12.607,0,0,1,2.275.917L32.056,10q-0.248-.155-0.82-0.435a9.772,9.772,0,0,0-1.455-.544,17.358,17.358,0,0,0-2.1-.466,16.923,16.923,0,0,0-2.739-.2,11.723,11.723,0,0,0-4.194.746,9.648,9.648,0,0,0-3.42,2.19,10.308,10.308,0,0,0-2.29,3.526A12.768,12.768,0,0,0,14.2,19.6a13.825,13.825,0,0,0,.758,4.753,9.707,9.707,0,0,0,2.151,3.511,9.148,9.148,0,0,0,3.358,2.175,12.263,12.263,0,0,0,4.38.746A24.394,24.394,0,0,0,29.58,30.4a18.1,18.1,0,0,0,2.786-.73V19.009H27.538V26.5a6.48,6.48,0,0,1-1.006.124q-0.573.031-1.377,0.031a6.166,6.166,0,0,1-2.6-.513A5.021,5.021,0,0,1,20.7,24.694a6.329,6.329,0,0,1-1.114-2.221,10.363,10.363,0,0,1-.372-2.874,8.02,8.02,0,0,1,1.5-5.142q1.5-1.879,4.875-1.88A9.651,9.651,0,0,1,28.389,12.967Z"/>
</svg>
