<svg xmlns="http://www.w3.org/2000/svg" width="150" height="150" viewBox="0 0 300 300">
  <defs>
    <style>
      .cls-1 {
        fill: #1e88e5;
      }

      .cls-2 {
        fill: #1b2a49;
      }

      .cls-2, .cls-3 {
        fill-rule: evenodd;
      }

      .cls-3 {
        fill: #fff;
      }
    </style>
  </defs>
  <rect id="Прямоугольник_1" data-name="Прямоугольник 1" class="cls-1" width="300" height="300"/>
  <path id="i_" data-name="i " class="cls-2" d="M80.769,128.645H53.234v97.2H80.769v-97.2Zm-2.31-40.01a17.53,17.53,0,0,0-23.1,0q-4.9,4.344-4.9,11.92t4.9,11.92a17.53,17.53,0,0,0,23.1,0q4.894-4.341,4.9-11.92T78.459,88.636Z"/>
  <path id="G" class="cls-3" d="M212.268,97.165a95.04,95.04,0,0,1,17.111,6.868l10.476-29.1q-1.866-1.162-6.17-3.259A73.676,73.676,0,0,0,222.744,67.6a130.92,130.92,0,0,0-15.831-3.492,127.734,127.734,0,0,0-20.6-1.513,88.472,88.472,0,0,0-31.545,5.587,72.6,72.6,0,0,0-25.724,16.412,77.209,77.209,0,0,0-17.227,26.423q-6.287,15.6-6.286,35.851,0,20.024,5.7,35.618a72.7,72.7,0,0,0,16.179,26.307,68.842,68.842,0,0,0,25.259,16.3,92.567,92.567,0,0,0,32.941,5.587q21.182,0,35.619-2.91t20.952-5.471v-79.85H205.866v56.1a48.837,48.837,0,0,1-7.566.932q-4.311.234-10.36,0.232a46.522,46.522,0,0,1-19.555-3.841,37.745,37.745,0,0,1-13.968-10.825,47.359,47.359,0,0,1-8.381-16.645,77.427,77.427,0,0,1-2.793-21.534q0-24.444,11.29-38.529T191.2,94.255A72.836,72.836,0,0,1,212.268,97.165Z"/>
</svg>
